<svg role="img" viewBox="0 0 24 24" xmlns="http://www.w3.org/2000/svg">
    <title>GitHub</title>
    <path fill="currentColor" d="M12 0C5.37 0 0 5.37 0 12c0 5.3 3.438 9.8 8.205 11.385.6.113.82-.26.82-.577 0-.285-.01-1.04-.015-2.04-3.338.724-4.042-1.61-4.042-1.61-.546-1.387-1.333-1.756-1.333-1.756-1.09-.745.083-.73.083-.73 1.205.085 1.84 1.236 1.84 1.236 1.07 1.835 2.807 1.305 3.492.998.107-.775.418-1.305.762-1.605-2.665-.3-5.467-1.335-5.467-5.932 0-1.31.467-2.382 1.235-3.222-.123-.303-.535-1.523.117-3.176 0 0 1.008-.322 3.3 1.23.957-.266 1.983-.399 3.003-.404 1.02.005 2.047.138 3.006.404 2.288-1.552 3.294-1.23 3.294-1.23.653 1.653.242 2.873.12 3.176.77.84 1.234 1.912 1.234 3.222 0 4.61-2.807 5.628-5.48 5.922.43.37.814 1.102.814 2.222 0 1.606-.015 2.896-.015 3.286 0 .32.216.694.825.576C20.565 21.796 24 17.3 24 12c0-6.63-5.37-12-12-12z"/>
</svg>
